<mxfile host="app.diagrams.net" agent="Mozilla/5.0 (Windows NT 10.0; Win64; x64) AppleWebKit/537.36 (KHTML, like Gecko) Chrome/139.0.0.0 Safari/537.36" version="28.1.0">
  <diagram id="C5RBs43oDa-KdzZeNtuy" name="Page-1">
    <mxGraphModel dx="936" dy="735" grid="0" gridSize="10" guides="0" tooltips="1" connect="1" arrows="1" fold="1" page="1" pageScale="1" pageWidth="827" pageHeight="1169" math="0" shadow="0">
      <root>
        <mxCell id="WIyWlLk6GJQsqaUBKTNV-0" />
        <mxCell id="WIyWlLk6GJQsqaUBKTNV-1" parent="WIyWlLk6GJQsqaUBKTNV-0" />
        <mxCell id="ieKx556GFrU0GzPhjvEs-0" style="edgeStyle=orthogonalEdgeStyle;rounded=0;orthogonalLoop=1;jettySize=auto;html=1;entryX=0;entryY=0.5;entryDx=0;entryDy=0;strokeColor=#B20000;strokeWidth=3;" edge="1" parent="WIyWlLk6GJQsqaUBKTNV-1" source="G2rbbcFrlgkOz_zvzb8_-0" target="G2rbbcFrlgkOz_zvzb8_-6">
          <mxGeometry relative="1" as="geometry" />
        </mxCell>
        <mxCell id="ieKx556GFrU0GzPhjvEs-1" style="edgeStyle=orthogonalEdgeStyle;rounded=0;orthogonalLoop=1;jettySize=auto;html=1;entryX=0;entryY=0.5;entryDx=0;entryDy=0;strokeColor=#B20000;strokeWidth=3;" edge="1" parent="WIyWlLk6GJQsqaUBKTNV-1" source="G2rbbcFrlgkOz_zvzb8_-0" target="G2rbbcFrlgkOz_zvzb8_-7">
          <mxGeometry relative="1" as="geometry" />
        </mxCell>
        <mxCell id="G2rbbcFrlgkOz_zvzb8_-0" value="Identify and Define Problem" style="rounded=1;whiteSpace=wrap;html=1;fontSize=16;labelBackgroundColor=none;fillColor=#0050ef;strokeColor=#001DBC;fontColor=#ffffff;fontStyle=1" parent="WIyWlLk6GJQsqaUBKTNV-1" vertex="1">
          <mxGeometry x="92" y="30" width="120" height="60" as="geometry" />
        </mxCell>
        <mxCell id="ieKx556GFrU0GzPhjvEs-2" style="edgeStyle=orthogonalEdgeStyle;rounded=0;orthogonalLoop=1;jettySize=auto;html=1;entryX=0;entryY=0.5;entryDx=0;entryDy=0;strokeColor=#B20000;strokeWidth=3;" edge="1" parent="WIyWlLk6GJQsqaUBKTNV-1" source="G2rbbcFrlgkOz_zvzb8_-1" target="G2rbbcFrlgkOz_zvzb8_-8">
          <mxGeometry relative="1" as="geometry">
            <Array as="points">
              <mxPoint x="253" y="140" />
              <mxPoint x="253" y="220" />
            </Array>
          </mxGeometry>
        </mxCell>
        <mxCell id="G2rbbcFrlgkOz_zvzb8_-1" value="Define Solution Objectives" style="rounded=1;whiteSpace=wrap;html=1;fontSize=16;labelBackgroundColor=none;fillColor=#0050ef;strokeColor=#001DBC;fontColor=#ffffff;fontStyle=1" parent="WIyWlLk6GJQsqaUBKTNV-1" vertex="1">
          <mxGeometry x="92" y="110" width="120" height="60" as="geometry" />
        </mxCell>
        <mxCell id="ieKx556GFrU0GzPhjvEs-3" style="edgeStyle=orthogonalEdgeStyle;rounded=0;orthogonalLoop=1;jettySize=auto;html=1;entryX=0;entryY=0.5;entryDx=0;entryDy=0;strokeColor=#B20000;strokeWidth=3;" edge="1" parent="WIyWlLk6GJQsqaUBKTNV-1" source="G2rbbcFrlgkOz_zvzb8_-2" target="G2rbbcFrlgkOz_zvzb8_-9">
          <mxGeometry relative="1" as="geometry">
            <Array as="points">
              <mxPoint x="238" y="220" />
              <mxPoint x="238" y="300" />
            </Array>
          </mxGeometry>
        </mxCell>
        <mxCell id="G2rbbcFrlgkOz_zvzb8_-2" value="Application Design and Development" style="rounded=1;whiteSpace=wrap;html=1;fontSize=16;labelBackgroundColor=none;fillColor=#0050ef;strokeColor=#001DBC;fontColor=#ffffff;fontStyle=1" parent="WIyWlLk6GJQsqaUBKTNV-1" vertex="1">
          <mxGeometry x="92" y="190" width="120" height="60" as="geometry" />
        </mxCell>
        <mxCell id="G2rbbcFrlgkOz_zvzb8_-35" style="edgeStyle=orthogonalEdgeStyle;rounded=0;orthogonalLoop=1;jettySize=auto;html=1;entryX=0;entryY=0.5;entryDx=0;entryDy=0;fillColor=#e51400;strokeColor=#B20000;strokeWidth=3;" parent="WIyWlLk6GJQsqaUBKTNV-1" source="G2rbbcFrlgkOz_zvzb8_-3" target="G2rbbcFrlgkOz_zvzb8_-9" edge="1">
          <mxGeometry relative="1" as="geometry" />
        </mxCell>
        <mxCell id="G2rbbcFrlgkOz_zvzb8_-3" value="Deployment and Implementation" style="rounded=1;whiteSpace=wrap;html=1;fontSize=16;labelBackgroundColor=none;fillColor=#0050ef;strokeColor=#001DBC;fontColor=#ffffff;fontStyle=1" parent="WIyWlLk6GJQsqaUBKTNV-1" vertex="1">
          <mxGeometry x="92" y="270" width="120" height="60" as="geometry" />
        </mxCell>
        <mxCell id="G2rbbcFrlgkOz_zvzb8_-36" style="edgeStyle=orthogonalEdgeStyle;rounded=0;orthogonalLoop=1;jettySize=auto;html=1;entryX=0;entryY=0.5;entryDx=0;entryDy=0;fillColor=#e51400;strokeColor=#B20000;strokeWidth=3;" parent="WIyWlLk6GJQsqaUBKTNV-1" source="G2rbbcFrlgkOz_zvzb8_-4" target="G2rbbcFrlgkOz_zvzb8_-10" edge="1">
          <mxGeometry relative="1" as="geometry" />
        </mxCell>
        <mxCell id="G2rbbcFrlgkOz_zvzb8_-4" value="Evaluation" style="rounded=1;whiteSpace=wrap;html=1;fontSize=16;labelBackgroundColor=none;fillColor=#0050ef;strokeColor=#001DBC;fontColor=#ffffff;fontStyle=1" parent="WIyWlLk6GJQsqaUBKTNV-1" vertex="1">
          <mxGeometry x="92" y="350" width="120" height="60" as="geometry" />
        </mxCell>
        <mxCell id="G2rbbcFrlgkOz_zvzb8_-37" style="edgeStyle=orthogonalEdgeStyle;rounded=0;orthogonalLoop=1;jettySize=auto;html=1;entryX=0;entryY=0.5;entryDx=0;entryDy=0;fillColor=#e51400;strokeColor=#B20000;strokeWidth=3;" parent="WIyWlLk6GJQsqaUBKTNV-1" source="G2rbbcFrlgkOz_zvzb8_-5" target="G2rbbcFrlgkOz_zvzb8_-11" edge="1">
          <mxGeometry relative="1" as="geometry" />
        </mxCell>
        <mxCell id="G2rbbcFrlgkOz_zvzb8_-5" value="Conclusion" style="rounded=1;whiteSpace=wrap;html=1;fontSize=16;labelBackgroundColor=none;fillColor=#0050ef;strokeColor=#001DBC;fontColor=#ffffff;fontStyle=1" parent="WIyWlLk6GJQsqaUBKTNV-1" vertex="1">
          <mxGeometry x="92" y="430" width="120" height="60" as="geometry" />
        </mxCell>
        <mxCell id="G2rbbcFrlgkOz_zvzb8_-6" value="Introduction" style="rounded=1;whiteSpace=wrap;html=1;fontSize=16;labelBackgroundColor=none;fillColor=#0050EF;strokeColor=#001DBC;fontColor=#ffffff;fontStyle=1" parent="WIyWlLk6GJQsqaUBKTNV-1" vertex="1">
          <mxGeometry x="322" y="30" width="120" height="60" as="geometry" />
        </mxCell>
        <mxCell id="G2rbbcFrlgkOz_zvzb8_-7" value="Literature Review" style="rounded=1;whiteSpace=wrap;html=1;fontSize=16;labelBackgroundColor=none;fillColor=#0050ef;strokeColor=#001DBC;fontColor=#ffffff;fontStyle=1" parent="WIyWlLk6GJQsqaUBKTNV-1" vertex="1">
          <mxGeometry x="322" y="110" width="120" height="60" as="geometry" />
        </mxCell>
        <mxCell id="G2rbbcFrlgkOz_zvzb8_-26" style="edgeStyle=orthogonalEdgeStyle;rounded=0;orthogonalLoop=1;jettySize=auto;html=1;entryX=0;entryY=0.5;entryDx=0;entryDy=0;strokeWidth=3;fillColor=#e51400;strokeColor=#B20000;" parent="WIyWlLk6GJQsqaUBKTNV-1" source="G2rbbcFrlgkOz_zvzb8_-8" target="G2rbbcFrlgkOz_zvzb8_-20" edge="1">
          <mxGeometry relative="1" as="geometry" />
        </mxCell>
        <mxCell id="HcKGHyg66assWKmG3aD0-3" style="edgeStyle=orthogonalEdgeStyle;rounded=0;orthogonalLoop=1;jettySize=auto;html=1;entryX=0;entryY=0.5;entryDx=0;entryDy=0;strokeWidth=3;strokeColor=#B20000;" parent="WIyWlLk6GJQsqaUBKTNV-1" target="HcKGHyg66assWKmG3aD0-2" edge="1">
          <mxGeometry relative="1" as="geometry">
            <mxPoint x="343" y="220" as="sourcePoint" />
            <mxPoint x="497" y="26" as="targetPoint" />
            <Array as="points">
              <mxPoint x="343" y="221" />
              <mxPoint x="482" y="221" />
              <mxPoint x="482" y="58" />
            </Array>
          </mxGeometry>
        </mxCell>
        <mxCell id="G2rbbcFrlgkOz_zvzb8_-8" value="Requirements Modeling" style="rounded=1;whiteSpace=wrap;html=1;fontSize=16;labelBackgroundColor=none;fillColor=#0050ef;strokeColor=#001DBC;fontColor=#ffffff;fontStyle=1" parent="WIyWlLk6GJQsqaUBKTNV-1" vertex="1">
          <mxGeometry x="322" y="190" width="120" height="60" as="geometry" />
        </mxCell>
        <mxCell id="G2rbbcFrlgkOz_zvzb8_-27" style="edgeStyle=orthogonalEdgeStyle;rounded=0;orthogonalLoop=1;jettySize=auto;html=1;entryX=0;entryY=0.5;entryDx=0;entryDy=0;fillColor=#e51400;strokeColor=#B20000;strokeWidth=3;" parent="WIyWlLk6GJQsqaUBKTNV-1" source="G2rbbcFrlgkOz_zvzb8_-9" target="G2rbbcFrlgkOz_zvzb8_-21" edge="1">
          <mxGeometry relative="1" as="geometry" />
        </mxCell>
        <mxCell id="G2rbbcFrlgkOz_zvzb8_-29" style="edgeStyle=orthogonalEdgeStyle;rounded=0;orthogonalLoop=1;jettySize=auto;html=1;fillColor=#e51400;strokeColor=#B20000;strokeWidth=3;" parent="WIyWlLk6GJQsqaUBKTNV-1" source="G2rbbcFrlgkOz_zvzb8_-9" target="G2rbbcFrlgkOz_zvzb8_-22" edge="1">
          <mxGeometry relative="1" as="geometry" />
        </mxCell>
        <mxCell id="G2rbbcFrlgkOz_zvzb8_-9" value="Prototype Development" style="rounded=1;whiteSpace=wrap;html=1;fontSize=16;labelBackgroundColor=none;fillColor=#0050ef;strokeColor=#001DBC;fontColor=#ffffff;fontStyle=1" parent="WIyWlLk6GJQsqaUBKTNV-1" vertex="1">
          <mxGeometry x="322" y="270" width="120" height="60" as="geometry" />
        </mxCell>
        <mxCell id="G2rbbcFrlgkOz_zvzb8_-10" value="System Evaluation" style="rounded=1;whiteSpace=wrap;html=1;fontSize=16;labelBackgroundColor=none;fillColor=#0050ef;strokeColor=#001DBC;fontColor=#ffffff;fontStyle=1" parent="WIyWlLk6GJQsqaUBKTNV-1" vertex="1">
          <mxGeometry x="322" y="350" width="120" height="60" as="geometry" />
        </mxCell>
        <mxCell id="G2rbbcFrlgkOz_zvzb8_-11" value="Conclusion and Future Work" style="rounded=1;whiteSpace=wrap;html=1;fontSize=16;labelBackgroundColor=none;fillColor=#0050ef;strokeColor=#001DBC;fontColor=#ffffff;fontStyle=1" parent="WIyWlLk6GJQsqaUBKTNV-1" vertex="1">
          <mxGeometry x="322" y="430" width="120" height="60" as="geometry" />
        </mxCell>
        <mxCell id="G2rbbcFrlgkOz_zvzb8_-15" value="&lt;b&gt;&lt;font style=&quot;font-size: 16px;&quot;&gt;Process Steps&lt;/font&gt;&lt;/b&gt;" style="rounded=1;whiteSpace=wrap;html=1;fontColor=light-dark(#ffffff, #ededed);fillColor=#000000;strokeColor=#BD7000;" parent="WIyWlLk6GJQsqaUBKTNV-1" vertex="1">
          <mxGeometry x="92" y="540" width="120" height="40" as="geometry" />
        </mxCell>
        <mxCell id="G2rbbcFrlgkOz_zvzb8_-17" value="&lt;b&gt;&lt;font style=&quot;font-size: 16px;&quot;&gt;Dissertation Chapter&lt;/font&gt;&lt;/b&gt;" style="rounded=1;whiteSpace=wrap;html=1;fontColor=light-dark(#ffffff, #ededed);fillColor=#000000;strokeColor=#BD7000;" parent="WIyWlLk6GJQsqaUBKTNV-1" vertex="1">
          <mxGeometry x="322" y="540" width="120" height="40" as="geometry" />
        </mxCell>
        <mxCell id="G2rbbcFrlgkOz_zvzb8_-18" value="&lt;b&gt;&lt;font style=&quot;font-size: 16px;&quot;&gt;Artifacts&lt;/font&gt;&lt;/b&gt;" style="rounded=1;whiteSpace=wrap;html=1;fontColor=light-dark(#ffffff, #ededed);fillColor=#000000;strokeColor=#BD7000;" parent="WIyWlLk6GJQsqaUBKTNV-1" vertex="1">
          <mxGeometry x="596" y="543" width="120" height="40" as="geometry" />
        </mxCell>
        <mxCell id="G2rbbcFrlgkOz_zvzb8_-20" value="Functional Requirements Document" style="shape=document;whiteSpace=wrap;html=1;boundedLbl=1;fillColor=#0050EF;fontColor=#FFFFFF;fontStyle=1;fontSize=16;" parent="WIyWlLk6GJQsqaUBKTNV-1" vertex="1">
          <mxGeometry x="522" y="110" width="120" height="80" as="geometry" />
        </mxCell>
        <mxCell id="G2rbbcFrlgkOz_zvzb8_-21" value="DSL Specification" style="rounded=1;whiteSpace=wrap;html=1;fontSize=16;fontColor=#FFFFFF;fillColor=#0050EF;fontStyle=1" parent="WIyWlLk6GJQsqaUBKTNV-1" vertex="1">
          <mxGeometry x="592" y="240" width="120" height="40" as="geometry" />
        </mxCell>
        <mxCell id="G2rbbcFrlgkOz_zvzb8_-22" value="Hosting Application" style="rounded=1;whiteSpace=wrap;html=1;fontColor=#FFFFFF;fontSize=16;fontStyle=1;fillColor=#0050EF;" parent="WIyWlLk6GJQsqaUBKTNV-1" vertex="1">
          <mxGeometry x="592" y="310" width="120" height="40" as="geometry" />
        </mxCell>
        <mxCell id="G2rbbcFrlgkOz_zvzb8_-23" value="Architecture &lt;br&gt;Diagram" style="shape=document;whiteSpace=wrap;html=1;boundedLbl=1;fillColor=#0050EF;fontStyle=1;fontSize=16;fontColor=#FFFFFF;" parent="WIyWlLk6GJQsqaUBKTNV-1" vertex="1">
          <mxGeometry x="672" y="110" width="120" height="80" as="geometry" />
        </mxCell>
        <mxCell id="G2rbbcFrlgkOz_zvzb8_-30" style="edgeStyle=orthogonalEdgeStyle;rounded=0;orthogonalLoop=1;jettySize=auto;html=1;entryX=0.333;entryY=1;entryDx=0;entryDy=0;entryPerimeter=0;strokeWidth=3;fillColor=#e51400;strokeColor=#B20000;" parent="WIyWlLk6GJQsqaUBKTNV-1" source="G2rbbcFrlgkOz_zvzb8_-8" target="G2rbbcFrlgkOz_zvzb8_-23" edge="1">
          <mxGeometry relative="1" as="geometry" />
        </mxCell>
        <mxCell id="G2rbbcFrlgkOz_zvzb8_-31" style="edgeStyle=orthogonalEdgeStyle;rounded=0;orthogonalLoop=1;jettySize=auto;html=1;entryX=0;entryY=0.5;entryDx=0;entryDy=0;fillColor=#e51400;strokeColor=#B20000;strokeWidth=3;" parent="WIyWlLk6GJQsqaUBKTNV-1" source="G2rbbcFrlgkOz_zvzb8_-10" target="HcKGHyg66assWKmG3aD0-1" edge="1">
          <mxGeometry relative="1" as="geometry">
            <mxPoint x="612" y="450" as="targetPoint" />
          </mxGeometry>
        </mxCell>
        <mxCell id="G2rbbcFrlgkOz_zvzb8_-41" value="" style="strokeWidth=2;html=1;shape=mxgraph.flowchart.annotation_2;align=left;labelPosition=right;pointerEvents=1;rotation=-90;" parent="WIyWlLk6GJQsqaUBKTNV-1" vertex="1">
          <mxGeometry x="144" y="443" width="28" height="151" as="geometry" />
        </mxCell>
        <mxCell id="G2rbbcFrlgkOz_zvzb8_-42" value="" style="strokeWidth=2;html=1;shape=mxgraph.flowchart.annotation_2;align=left;labelPosition=right;pointerEvents=1;rotation=-90;" parent="WIyWlLk6GJQsqaUBKTNV-1" vertex="1">
          <mxGeometry x="370" y="442" width="28" height="151" as="geometry" />
        </mxCell>
        <mxCell id="G2rbbcFrlgkOz_zvzb8_-43" value="" style="strokeWidth=2;html=1;shape=mxgraph.flowchart.annotation_2;align=left;labelPosition=right;pointerEvents=1;rotation=-90;" parent="WIyWlLk6GJQsqaUBKTNV-1" vertex="1">
          <mxGeometry x="642" y="388" width="28" height="259" as="geometry" />
        </mxCell>
        <mxCell id="HcKGHyg66assWKmG3aD0-1" value="Evaluation Matrix" style="shape=document;whiteSpace=wrap;html=1;boundedLbl=1;fillColor=#0050EF;fontColor=#FFFFFF;fontStyle=1;fontSize=16;" parent="WIyWlLk6GJQsqaUBKTNV-1" vertex="1">
          <mxGeometry x="591" y="380" width="120" height="80" as="geometry" />
        </mxCell>
        <mxCell id="HcKGHyg66assWKmG3aD0-2" value="Delphi Study Results" style="rounded=1;whiteSpace=wrap;html=1;fontColor=#FFFFFF;fontSize=16;fontStyle=1;fillColor=#0050EF;" parent="WIyWlLk6GJQsqaUBKTNV-1" vertex="1">
          <mxGeometry x="598" y="38" width="120" height="40" as="geometry" />
        </mxCell>
      </root>
    </mxGraphModel>
  </diagram>
</mxfile>
